<svg width="182" height="57" viewBox="0 0 182 57" version="1.1" xmlns="http://www.w3.org/2000/svg" xmlns:xlink="http://www.w3.org/1999/xlink">
<title>Component</title>
<desc>Created using Figma</desc>
<g id="Canvas" transform="translate(367 192)">
<g id="Component">
<g id="Movie Me">
<use xlink:href="#path0_fill" transform="translate(-367 -192)" fill="#F2F2F2"/>
</g>
<g id="Arrow">
<use xlink:href="#path1_stroke" transform="matrix(-1 8.74228e-08 -8.74228e-08 -1 -230 -150)" fill="#F2F2F2"/>
</g>
</g>
</g>
<defs>
<path id="path0_fill" d="M 68.5754 27.88C 68.6234 28.012 68.6474 28.162 68.6474 28.33C 68.6474 28.522 68.6174 28.714 68.5574 28.906C 68.5094 29.086 68.4434 29.224 68.3594 29.32C 68.4674 29.428 68.5214 29.668 68.5214 30.04C 68.5214 30.4 68.4674 30.652 68.3594 30.796C 68.4194 30.856 68.4674 30.964 68.5034 31.12C 68.5394 31.276 68.5574 31.45 68.5574 31.642C 68.5574 32.002 68.4914 32.284 68.3594 32.488C 68.4314 32.716 68.4674 32.92 68.4674 33.1C 68.4674 33.376 68.3954 33.586 68.2514 33.73C 68.1074 33.874 67.9394 33.946 67.7474 33.946C 67.5794 33.946 67.4294 33.886 67.2974 33.766C 67.1654 33.646 67.0994 33.484 67.0994 33.28C 67.0994 33.172 67.1174 33.064 67.1534 32.956C 66.9974 32.68 66.9194 32.368 66.9194 32.02C 66.9194 31.672 66.9974 31.42 67.1534 31.264C 67.0334 31.144 66.9734 30.976 66.9734 30.76C 66.9734 30.556 67.0334 30.394 67.1534 30.274C 67.0334 30.034 66.9734 29.764 66.9734 29.464C 66.9734 29.164 67.0334 28.96 67.1534 28.852C 67.0334 28.612 66.9734 28.294 66.9734 27.898C 66.9734 27.502 67.0334 27.25 67.1534 27.142C 66.9854 26.914 66.9014 26.644 66.9014 26.332C 66.9014 26.056 66.9854 25.84 67.1534 25.684C 67.1054 25.624 67.0814 25.54 67.0814 25.432C 67.0814 25.348 67.0934 25.24 67.1174 25.108C 67.1414 24.964 67.1534 24.832 67.1534 24.712C 67.1534 25.024 67.0814 25.432 66.9374 25.936C 66.7934 26.428 66.5954 26.764 66.3434 26.944C 66.3434 27.736 66.1934 28.198 65.8934 28.33C 65.8934 28.594 65.8454 28.906 65.7494 29.266C 65.6534 29.614 65.5574 29.788 65.4614 29.788C 65.4614 29.932 65.4014 30.094 65.2814 30.274C 65.1734 30.442 65.0654 30.526 64.9574 30.526C 64.9934 30.646 65.0114 30.778 65.0114 30.922C 65.0114 31.09 64.9814 31.252 64.9214 31.408C 64.8734 31.552 64.8074 31.666 64.7234 31.75C 64.7234 31.966 64.6814 32.146 64.5974 32.29C 64.5134 32.434 64.3994 32.572 64.2554 32.704C 64.2554 32.932 64.1774 33.112 64.0214 33.244C 63.8654 33.376 63.6854 33.442 63.4814 33.442C 63.2894 33.442 63.1214 33.382 62.9774 33.262C 62.8334 33.13 62.7614 32.95 62.7614 32.722C 62.7614 32.614 62.7674 32.536 62.7794 32.488C 62.6594 32.488 62.5454 32.386 62.4374 32.182C 62.3414 31.966 62.2934 31.738 62.2934 31.498C 62.1854 31.498 62.0714 31.408 61.9514 31.228C 61.8314 31.036 61.7354 30.826 61.6634 30.598C 61.5914 30.358 61.5734 30.178 61.6094 30.058C 61.5134 29.986 61.4174 29.848 61.3214 29.644C 61.2374 29.44 61.1954 29.224 61.1954 28.996C 61.1954 28.756 61.2434 28.546 61.3394 28.366C 61.1834 28.354 61.0454 28.246 60.9254 28.042C 60.8174 27.826 60.7634 27.616 60.7634 27.412C 60.7634 27.292 60.7934 27.202 60.8534 27.142C 60.7334 27.046 60.6194 26.89 60.5114 26.674C 60.4154 26.458 60.3674 26.284 60.3674 26.152C 60.2114 25.996 60.1334 25.678 60.1334 25.198C 59.9654 25.198 59.8214 25.048 59.7014 24.748C 59.7254 24.976 59.7014 25.204 59.6294 25.432C 59.5694 25.648 59.4854 25.81 59.3774 25.918C 59.4854 26.014 59.5694 26.2 59.6294 26.476C 59.6894 26.74 59.7194 27.01 59.7194 27.286C 59.7194 27.538 59.6954 27.718 59.6474 27.826C 59.7674 28.018 59.8274 28.312 59.8274 28.708C 59.8274 29.152 59.7674 29.512 59.6474 29.788C 59.7434 29.992 59.7914 30.196 59.7914 30.4C 59.7914 30.58 59.7434 30.784 59.6474 31.012C 59.6954 31.06 59.7374 31.18 59.7734 31.372C 59.8094 31.552 59.8274 31.75 59.8274 31.966C 59.8274 32.374 59.7674 32.62 59.6474 32.704C 59.6594 32.776 59.6654 32.872 59.6654 32.992C 59.6654 33.304 59.5874 33.544 59.4314 33.712C 59.2874 33.88 59.1074 33.964 58.8914 33.964C 58.6754 33.964 58.4834 33.88 58.3154 33.712C 58.1474 33.544 58.0634 33.322 58.0634 33.046C 58.0634 32.842 58.1174 32.614 58.2254 32.362C 58.0814 31.87 58.0094 31.408 58.0094 30.976C 58.0094 30.58 58.0634 30.274 58.1714 30.058C 58.0514 29.902 57.9914 29.656 57.9914 29.32C 57.9914 29.164 58.0094 29.02 58.0454 28.888C 58.0814 28.744 58.1234 28.642 58.1714 28.582C 58.0514 28.306 57.9914 28.03 57.9914 27.754C 57.9914 27.466 58.0514 27.262 58.1714 27.142C 58.1114 27.058 58.0634 26.95 58.0274 26.818C 57.9914 26.686 57.9734 26.548 57.9734 26.404C 57.9734 26.188 58.0094 26.026 58.0814 25.918C 57.9614 25.714 57.9014 25.45 57.9014 25.126C 57.9014 24.706 57.9914 24.406 58.1714 24.226C 58.0034 24.058 57.9194 23.716 57.9194 23.2C 57.9194 22.96 57.9434 22.732 57.9914 22.516C 58.0394 22.288 58.0994 22.138 58.1714 22.066C 58.1714 21.838 58.2554 21.652 58.4234 21.508C 58.5914 21.364 58.7834 21.292 58.9994 21.292C 59.2514 21.292 59.4674 21.382 59.6474 21.562C 59.8874 21.562 60.1034 21.67 60.2954 21.886C 60.4994 22.102 60.6014 22.324 60.6014 22.552C 60.6854 22.624 60.7574 22.726 60.8174 22.858C 60.8774 22.978 60.9074 23.104 60.9074 23.236C 60.9074 23.332 60.8894 23.428 60.8534 23.524C 60.9974 23.536 61.1114 23.62 61.1954 23.776C 61.2914 23.932 61.3394 24.082 61.3394 24.226C 61.4354 24.31 61.5134 24.43 61.5734 24.586C 61.6454 24.73 61.6814 24.88 61.6814 25.036C 61.6814 25.18 61.6574 25.318 61.6094 25.45C 61.6694 25.45 61.7234 25.504 61.7714 25.612C 61.8314 25.708 61.8614 25.816 61.8614 25.936C 61.8614 26.032 61.8374 26.104 61.7894 26.152C 61.9214 26.224 62.0354 26.374 62.1314 26.602C 62.2394 26.818 62.2934 26.998 62.2934 27.142C 62.3774 27.226 62.4434 27.364 62.4914 27.556C 62.5514 27.748 62.5814 27.946 62.5814 28.15C 62.5814 28.306 62.5634 28.45 62.5274 28.582C 62.6474 28.666 62.7614 28.84 62.8694 29.104C 62.9774 29.356 63.0314 29.602 63.0314 29.842C 63.0314 29.938 63.0254 30.01 63.0134 30.058C 63.1574 30.166 63.2594 30.268 63.3194 30.364C 63.3914 30.46 63.4514 30.604 63.4994 30.796C 63.5234 30.268 63.6374 29.95 63.8414 29.842C 63.8174 29.746 63.8054 29.674 63.8054 29.626C 63.8054 29.446 63.8474 29.272 63.9314 29.104C 64.0274 28.936 64.1354 28.852 64.2554 28.852C 64.1954 28.732 64.1654 28.63 64.1654 28.546C 64.1654 28.282 64.3514 27.946 64.7234 27.538C 64.6874 27.466 64.6694 27.37 64.6694 27.25C 64.6694 27.046 64.7114 26.836 64.7954 26.62C 64.8914 26.404 65.0234 26.248 65.1914 26.152C 65.1914 25.792 65.2154 25.492 65.2634 25.252C 65.3234 25 65.4614 24.82 65.6774 24.712C 65.6774 24.496 65.7254 24.322 65.8214 24.19C 65.9294 24.046 66.0554 23.974 66.1994 23.974C 66.1394 23.878 66.1094 23.752 66.1094 23.596C 66.1094 23.344 66.1634 23.086 66.2714 22.822C 66.3914 22.558 66.5294 22.378 66.6854 22.282C 66.6854 22.018 66.7574 21.79 66.9014 21.598C 67.0574 21.406 67.2974 21.31 67.6214 21.31C 67.6814 21.286 67.7654 21.274 67.8734 21.274C 68.1134 21.274 68.2874 21.382 68.3954 21.598C 68.5154 21.802 68.5754 21.988 68.5754 22.156C 68.6834 22.528 68.7374 22.81 68.7374 23.002C 68.7374 23.182 68.6834 23.464 68.5754 23.848C 68.6834 23.968 68.7374 24.142 68.7374 24.37C 68.7374 24.586 68.6834 24.82 68.5754 25.072C 68.6834 25.192 68.7374 25.39 68.7374 25.666C 68.7374 25.954 68.6774 26.17 68.5574 26.314C 68.7134 26.518 68.7914 26.776 68.7914 27.088C 68.7914 27.4 68.7194 27.664 68.5754 27.88ZM 75.4465 33.784C 75.3025 33.928 75.0805 34 74.7805 34C 74.5525 34 74.3665 33.964 74.2225 33.892C 74.0065 33.94 73.8145 33.964 73.6465 33.964C 73.1785 33.964 72.8425 33.844 72.6385 33.604C 72.5905 33.616 72.5245 33.622 72.4405 33.622C 72.1645 33.622 71.9545 33.496 71.8105 33.244C 71.6905 33.256 71.5345 33.196 71.3425 33.064C 71.1625 32.92 71.0845 32.782 71.1085 32.65C 70.9165 32.602 70.7545 32.488 70.6225 32.308C 70.5025 32.116 70.4485 31.9 70.4605 31.66C 70.3285 31.612 70.2265 31.516 70.1545 31.372C 70.0825 31.228 70.0465 31.066 70.0465 30.886C 70.0465 30.694 70.0765 30.556 70.1365 30.472C 70.0045 30.268 69.9385 30.034 69.9385 29.77C 69.9385 29.494 70.0225 29.272 70.1905 29.104C 70.0585 29.008 69.9925 28.864 69.9925 28.672C 69.9925 28.552 70.0225 28.432 70.0825 28.312C 70.1425 28.192 70.2205 28.108 70.3165 28.06C 70.2925 27.892 70.3105 27.736 70.3705 27.592C 70.4425 27.436 70.5385 27.322 70.6585 27.25C 70.6345 27.214 70.6225 27.16 70.6225 27.088C 70.6225 26.98 70.6585 26.872 70.7305 26.764C 70.8145 26.656 70.9045 26.59 71.0005 26.566C 70.9885 26.53 70.9825 26.482 70.9825 26.422C 70.9825 26.17 71.0785 25.954 71.2705 25.774C 71.4625 25.582 71.6485 25.498 71.8285 25.522C 71.8285 25.354 71.9005 25.216 72.0445 25.108C 72.2005 24.988 72.3985 24.928 72.6385 24.928C 72.7465 24.928 72.8305 24.934 72.8905 24.946C 72.9745 24.766 73.1185 24.622 73.3225 24.514C 73.5265 24.394 73.7365 24.334 73.9525 24.334C 74.0965 24.334 74.2165 24.364 74.3125 24.424C 74.4805 24.28 74.6905 24.208 74.9425 24.208C 75.1465 24.208 75.3265 24.256 75.4825 24.352C 75.6505 24.448 75.7525 24.58 75.7885 24.748C 75.9805 24.748 76.1845 24.82 76.4005 24.964C 76.6165 25.096 76.7425 25.234 76.7785 25.378C 77.0665 25.462 77.3425 25.648 77.6065 25.936C 77.8825 26.212 78.0205 26.494 78.0205 26.782C 78.0205 26.83 78.0085 26.902 77.9845 26.998C 78.5005 27.106 78.7345 27.628 78.6865 28.564C 78.7945 28.744 78.8485 28.936 78.8485 29.14C 78.8485 29.38 78.7705 29.62 78.6145 29.86C 78.6505 29.968 78.6685 30.07 78.6685 30.166C 78.6685 30.31 78.6385 30.448 78.5785 30.58C 78.5185 30.712 78.4405 30.814 78.3445 30.886C 78.3565 31.078 78.3205 31.234 78.2365 31.354C 78.1645 31.474 78.0265 31.636 77.8225 31.84C 77.8345 31.888 77.8405 31.96 77.8405 32.056C 77.8405 32.416 77.6365 32.65 77.2285 32.758C 77.1925 32.95 77.0905 33.106 76.9225 33.226C 76.7665 33.346 76.5745 33.406 76.3465 33.406C 76.1545 33.67 75.9205 33.802 75.6445 33.802C 75.5605 33.802 75.4945 33.796 75.4465 33.784ZM 73.7545 32.524C 73.8505 32.44 74.0125 32.398 74.2405 32.398C 74.4085 32.398 74.4985 32.422 74.5105 32.47C 74.6065 32.362 74.7265 32.278 74.8705 32.218C 75.0145 32.158 75.1465 32.134 75.2665 32.146C 75.4705 31.942 75.6925 31.84 75.9325 31.84C 76.0165 31.84 76.0765 31.846 76.1125 31.858C 76.1005 31.75 76.1305 31.648 76.2025 31.552C 76.2745 31.444 76.3585 31.372 76.4545 31.336C 76.4545 31.18 76.4905 31.048 76.5625 30.94C 76.6465 30.82 76.7485 30.73 76.8685 30.67C 76.8685 30.43 76.9165 30.238 77.0125 30.094C 76.9765 29.998 76.9585 29.902 76.9585 29.806C 76.9585 29.674 76.9885 29.548 77.0485 29.428C 77.1085 29.296 77.1925 29.188 77.3005 29.104C 77.1805 28.996 77.1205 28.864 77.1205 28.708C 77.1205 28.564 77.1625 28.42 77.2465 28.276C 77.0065 28.132 76.8445 27.994 76.7605 27.862C 76.6885 27.718 76.6525 27.46 76.6525 27.088C 76.5445 27.1 76.4305 27.04 76.3105 26.908C 76.2025 26.776 76.1365 26.626 76.1125 26.458C 75.9805 26.494 75.8185 26.458 75.6265 26.35C 75.4465 26.23 75.3565 26.08 75.3565 25.9C 75.2605 25.948 75.1465 25.972 75.0145 25.972C 74.7625 25.972 74.5585 25.882 74.4025 25.702C 74.2705 25.834 74.0965 25.942 73.8805 26.026C 73.6765 26.098 73.4965 26.122 73.3405 26.098C 73.3285 26.218 73.2205 26.362 73.0165 26.53C 72.8245 26.686 72.6505 26.788 72.4945 26.836C 72.5305 26.908 72.5485 26.992 72.5485 27.088C 72.5485 27.208 72.5185 27.328 72.4585 27.448C 72.3985 27.568 72.3145 27.67 72.2065 27.754C 72.2185 27.922 72.1765 28.084 72.0805 28.24C 71.9965 28.396 71.8765 28.504 71.7205 28.564C 71.7445 28.66 71.7565 28.738 71.7565 28.798C 71.7565 28.966 71.7145 29.098 71.6305 29.194C 71.6665 29.278 71.6845 29.362 71.6845 29.446C 71.6845 29.578 71.6185 29.722 71.4865 29.878C 71.7865 30.082 71.9365 30.376 71.9365 30.76C 71.9365 30.964 71.9005 31.138 71.8285 31.282C 71.9485 31.294 72.0325 31.33 72.0805 31.39C 72.1285 31.45 72.1705 31.546 72.2065 31.678C 72.5065 31.714 72.7285 31.858 72.8725 32.11C 73.0045 32.11 73.1665 32.152 73.3585 32.236C 73.5625 32.32 73.6945 32.416 73.7545 32.524ZM 85.0965 31.732C 85.1205 31.852 85.1325 31.954 85.1325 32.038C 85.1325 32.278 85.0785 32.512 84.9705 32.74C 84.8745 32.968 84.7665 33.112 84.6465 33.172C 84.5745 33.448 84.4665 33.658 84.3225 33.802C 84.1785 33.934 84.0165 34 83.8365 34C 83.5965 34 83.3865 33.892 83.2065 33.676C 82.9665 33.592 82.8465 33.43 82.8465 33.19C 82.8465 33.082 82.8645 32.986 82.9005 32.902C 82.8165 32.902 82.7145 32.83 82.5945 32.686C 82.4865 32.542 82.4325 32.392 82.4325 32.236C 82.4325 32.164 82.4505 32.092 82.4865 32.02C 82.4505 31.96 82.3905 31.882 82.3065 31.786C 82.2225 31.678 82.1745 31.564 82.1625 31.444C 82.0305 31.396 81.9285 31.318 81.8565 31.21C 81.7845 31.09 81.7485 30.958 81.7485 30.814C 81.7485 30.706 81.7605 30.622 81.7845 30.562C 81.6645 30.442 81.5625 30.268 81.4785 30.04C 81.3945 29.8 81.3585 29.596 81.3705 29.428C 81.2745 29.356 81.1965 29.266 81.1365 29.158C 81.0885 29.05 81.0645 28.942 81.0645 28.834C 81.0645 28.762 81.0705 28.708 81.0825 28.672C 80.9025 28.624 80.7405 28.504 80.5965 28.312C 80.4525 28.108 80.3865 27.868 80.3985 27.592C 80.2665 27.508 80.1765 27.442 80.1285 27.394C 80.0925 27.334 80.0745 27.262 80.0745 27.178L 80.0925 26.89C 79.9125 26.746 79.7685 26.596 79.6605 26.44C 79.5525 26.272 79.5045 26.056 79.5165 25.792C 79.3725 25.54 79.3005 25.33 79.3005 25.162C 79.3005 24.958 79.3965 24.766 79.5885 24.586C 79.7445 24.442 79.9125 24.37 80.0925 24.37C 80.3085 24.37 80.4885 24.46 80.6325 24.64C 80.7885 24.808 80.8545 24.982 80.8305 25.162C 80.9625 25.162 81.0645 25.228 81.1365 25.36C 81.2085 25.492 81.2445 25.636 81.2445 25.792C 81.2445 25.864 81.2385 25.918 81.2265 25.954C 81.4305 26.158 81.5325 26.374 81.5325 26.602C 81.5325 26.686 81.5145 26.764 81.4785 26.836C 81.7065 26.872 81.8685 26.986 81.9645 27.178C 82.0605 27.37 82.0905 27.574 82.0545 27.79C 82.3905 27.946 82.5345 28.198 82.4865 28.546C 82.6425 28.666 82.7385 28.798 82.7745 28.942C 82.8105 29.086 82.8345 29.278 82.8465 29.518C 82.9785 29.614 83.0985 29.746 83.2065 29.914C 83.3145 30.082 83.3505 30.268 83.3145 30.472C 83.4945 30.652 83.5725 30.85 83.5485 31.066C 83.5845 31.09 83.6265 31.138 83.6745 31.21C 83.6865 31.018 83.7225 30.868 83.7825 30.76C 83.8425 30.652 83.9205 30.538 84.0165 30.418C 83.9925 30.346 84.0045 30.256 84.0525 30.148C 84.1005 30.04 84.1725 29.944 84.2685 29.86C 84.2205 29.776 84.1965 29.68 84.1965 29.572C 84.1965 29.368 84.2685 29.224 84.4125 29.14C 84.3765 29.068 84.3585 28.966 84.3585 28.834C 84.3585 28.702 84.3825 28.564 84.4305 28.42C 84.4785 28.276 84.5505 28.15 84.6465 28.042C 84.6345 27.994 84.6285 27.922 84.6285 27.826C 84.6285 27.538 84.7185 27.304 84.8985 27.124C 84.8625 27.052 84.8445 26.95 84.8445 26.818C 84.8445 26.566 84.9285 26.362 85.0965 26.206C 85.0485 26.074 85.0245 25.936 85.0245 25.792C 85.0245 25.588 85.0605 25.39 85.1325 25.198C 85.2045 25.006 85.2825 24.868 85.3665 24.784C 85.4145 24.628 85.4985 24.508 85.6185 24.424C 85.7385 24.34 85.8645 24.298 85.9965 24.298C 86.1885 24.298 86.3625 24.37 86.5185 24.514C 86.6865 24.646 86.7705 24.814 86.7705 25.018C 86.7705 25.138 86.7405 25.252 86.6805 25.36C 86.7285 25.444 86.7525 25.546 86.7525 25.666C 86.7525 25.834 86.7165 26.002 86.6445 26.17C 86.5725 26.326 86.4765 26.446 86.3565 26.53C 86.3685 26.614 86.3745 26.734 86.3745 26.89C 86.3745 27.166 86.3085 27.4 86.1765 27.592C 86.2005 27.688 86.2125 27.796 86.2125 27.916C 86.2125 28.108 86.1825 28.294 86.1225 28.474C 86.0625 28.654 85.9605 28.792 85.8165 28.888C 85.8525 28.996 85.8705 29.122 85.8705 29.266C 85.8705 29.602 85.7865 29.848 85.6185 30.004C 85.6305 30.04 85.6365 30.094 85.6365 30.166C 85.6365 30.31 85.6125 30.454 85.5645 30.598C 85.5165 30.73 85.4505 30.844 85.3665 30.94C 85.3905 31.06 85.4025 31.144 85.4025 31.192C 85.4025 31.3 85.3785 31.39 85.3305 31.462C 85.2945 31.522 85.2465 31.582 85.1865 31.642C 85.1385 31.69 85.1085 31.72 85.0965 31.732ZM 88.574 21.166C 88.418 21.238 88.292 21.34 88.196 21.472C 88.1 21.604 88.052 21.742 88.052 21.886C 88.052 22.078 88.13 22.27 88.286 22.462C 88.262 22.618 88.346 22.768 88.538 22.912C 88.73 23.056 88.94 23.128 89.168 23.128C 89.324 23.128 89.462 23.086 89.582 23.002C 89.918 22.822 90.086 22.594 90.086 22.318C 90.086 22.138 90.014 21.934 89.87 21.706C 89.882 21.466 89.81 21.28 89.654 21.148C 89.51 21.004 89.336 20.932 89.132 20.932C 88.904 20.932 88.718 21.01 88.574 21.166ZM 89.744 29.122C 89.84 29.158 89.912 29.272 89.96 29.464C 90.02 29.656 90.05 29.866 90.05 30.094C 90.05 30.358 90.008 30.532 89.924 30.616C 89.996 30.796 90.032 30.97 90.032 31.138C 90.032 31.354 89.978 31.534 89.87 31.678C 89.954 31.882 89.996 32.122 89.996 32.398C 89.996 32.626 89.96 32.812 89.888 32.956C 89.924 33.064 89.942 33.166 89.942 33.262C 89.942 33.478 89.864 33.652 89.708 33.784C 89.552 33.904 89.366 33.964 89.15 33.964C 88.946 33.964 88.772 33.904 88.628 33.784C 88.484 33.652 88.418 33.478 88.43 33.262C 88.37 33.19 88.322 33.076 88.286 32.92C 88.25 32.764 88.232 32.602 88.232 32.434C 88.232 32.122 88.298 31.918 88.43 31.822C 88.334 31.666 88.286 31.432 88.286 31.12C 88.286 30.808 88.328 30.58 88.412 30.436C 88.364 30.388 88.328 30.274 88.304 30.094C 88.28 29.914 88.268 29.716 88.268 29.5C 88.268 29.296 88.28 29.116 88.304 28.96C 88.328 28.792 88.364 28.684 88.412 28.636C 88.34 28.564 88.304 28.366 88.304 28.042C 88.304 27.67 88.346 27.4 88.43 27.232C 88.37 27.136 88.316 27.01 88.268 26.854C 88.22 26.698 88.196 26.554 88.196 26.422C 88.196 26.302 88.208 26.218 88.232 26.17C 88.136 25.858 88.088 25.606 88.088 25.414C 88.088 25.21 88.136 25 88.232 24.784C 88.208 24.604 88.25 24.466 88.358 24.37C 88.466 24.274 88.622 24.226 88.826 24.226C 89.378 24.226 89.654 24.562 89.654 25.234C 89.762 25.306 89.84 25.408 89.888 25.54C 89.948 25.66 89.978 25.798 89.978 25.954C 89.978 26.206 89.918 26.422 89.798 26.602C 89.846 26.674 89.882 26.782 89.906 26.926C 89.942 27.07 89.96 27.214 89.96 27.358C 89.96 27.55 89.93 27.682 89.87 27.754C 89.918 27.814 89.942 27.94 89.942 28.132C 89.942 28.312 89.918 28.504 89.87 28.708C 89.834 28.912 89.792 29.05 89.744 29.122ZM 98.8472 26.962C 98.9792 27.022 99.0992 27.166 99.2072 27.394C 99.3272 27.622 99.3872 27.856 99.3872 28.096C 99.3872 28.504 99.2072 28.78 98.8472 28.924C 98.7512 29.092 98.6192 29.224 98.4512 29.32C 98.2952 29.416 98.1212 29.464 97.9292 29.464C 97.7732 29.464 97.6112 29.428 97.4432 29.356C 97.3472 29.416 97.2152 29.47 97.0472 29.518C 96.8792 29.566 96.7112 29.59 96.5432 29.59C 96.2552 29.59 96.0572 29.53 95.9492 29.41C 95.8292 29.506 95.6372 29.554 95.3732 29.554C 95.1812 29.554 95.0072 29.518 94.8512 29.446C 94.6832 29.53 94.4912 29.572 94.2752 29.572C 94.0712 29.572 93.9032 29.542 93.7712 29.482C 93.6512 29.59 93.4052 29.644 93.0332 29.644C 92.8292 29.644 92.6912 29.626 92.6192 29.59C 92.6552 29.938 92.6072 30.196 92.4752 30.364C 92.7032 30.592 92.7932 30.838 92.7452 31.102C 92.7572 31.114 92.8232 31.162 92.9432 31.246C 93.0632 31.33 93.1472 31.468 93.1952 31.66C 93.3272 31.66 93.4472 31.714 93.5552 31.822C 93.6752 31.93 93.7472 32.038 93.7712 32.146C 93.8192 32.098 93.9152 32.074 94.0592 32.074C 94.1672 32.074 94.2632 32.092 94.3472 32.128C 94.4312 32.164 94.4792 32.206 94.4912 32.254C 94.5752 32.206 94.6712 32.182 94.7792 32.182C 94.9352 32.182 95.0792 32.236 95.2112 32.344C 95.3312 32.32 95.4212 32.308 95.4812 32.308C 95.6012 32.308 95.7032 32.326 95.7872 32.362C 95.8232 32.266 95.9192 32.176 96.0752 32.092C 96.2312 31.996 96.3932 31.954 96.5612 31.966C 96.6572 31.846 96.7892 31.75 96.9572 31.678C 97.1252 31.606 97.2932 31.57 97.4612 31.57C 97.7852 31.57 98.0192 31.702 98.1632 31.966C 98.2112 32.062 98.2352 32.176 98.2352 32.308C 98.2352 32.596 98.1032 32.824 97.8392 32.992C 97.7792 33.028 97.6772 33.094 97.5332 33.19C 97.3892 33.274 97.2572 33.34 97.1372 33.388C 97.0172 33.436 96.9092 33.46 96.8132 33.46C 96.6332 33.676 96.3872 33.784 96.0752 33.784C 95.9312 33.784 95.8232 33.772 95.7512 33.748C 95.6072 33.868 95.3972 33.928 95.1212 33.928C 94.8692 33.928 94.6952 33.88 94.5992 33.784C 94.5152 33.82 94.4312 33.838 94.3472 33.838C 94.1792 33.838 94.0232 33.778 93.8792 33.658C 93.2672 33.694 92.8532 33.502 92.6372 33.082C 92.4692 33.082 92.2772 32.98 92.0612 32.776C 91.8572 32.56 91.7432 32.374 91.7192 32.218C 91.4432 32.11 91.2692 31.912 91.1972 31.624C 91.1852 31.528 91.1852 31.438 91.1972 31.354C 91.1492 31.342 91.1072 31.294 91.0712 31.21C 91.0472 31.114 91.0352 31.018 91.0352 30.922C 91.0352 30.85 91.0412 30.802 91.0532 30.778C 90.9572 30.49 90.9092 30.226 90.9092 29.986C 90.9092 29.746 90.9572 29.53 91.0532 29.338C 90.9812 29.206 90.9452 29.062 90.9452 28.906C 90.9452 28.714 90.9872 28.522 91.0712 28.33C 91.1552 28.138 91.2332 28.012 91.3052 27.952C 91.2812 27.892 91.2992 27.79 91.3592 27.646C 91.4192 27.49 91.4972 27.352 91.5932 27.232C 91.7012 27.1 91.8092 27.022 91.9172 26.998L 91.8992 26.8C 91.8992 26.332 92.1512 26.038 92.6552 25.918C 92.6552 25.714 92.7752 25.516 93.0152 25.324C 93.2552 25.132 93.4652 25.048 93.6452 25.072C 93.6692 24.94 93.7832 24.838 93.9872 24.766C 94.2032 24.682 94.3652 24.658 94.4732 24.694C 94.5692 24.538 94.7612 24.43 95.0492 24.37C 95.1572 24.25 95.3132 24.19 95.5172 24.19C 95.5772 24.19 95.6552 24.202 95.7512 24.226L 95.9132 24.208C 96.0572 24.208 96.1772 24.238 96.2732 24.298C 96.3812 24.346 96.4292 24.406 96.4172 24.478C 96.6812 24.502 96.9032 24.562 97.0832 24.658C 97.2632 24.754 97.3712 24.928 97.4072 25.18C 97.5632 25.144 97.7612 25.186 98.0012 25.306C 98.2412 25.414 98.4452 25.588 98.6132 25.828C 98.7932 26.056 98.8832 26.326 98.8832 26.638C 98.8832 26.71 98.8712 26.818 98.8472 26.962ZM 96.2012 28.132C 96.3212 27.964 96.6152 27.88 97.0832 27.88C 97.3472 27.88 97.5512 27.904 97.6952 27.952C 97.5992 27.904 97.5092 27.802 97.4252 27.646C 97.3532 27.478 97.3172 27.322 97.3172 27.178C 97.3172 27.082 97.3352 27.01 97.3712 26.962C 97.2032 26.974 97.0592 26.932 96.9392 26.836C 96.8312 26.728 96.7292 26.608 96.6332 26.476C 96.5492 26.344 96.4832 26.248 96.4352 26.188C 96.3752 26.224 96.2492 26.194 96.0572 26.098C 95.8772 25.99 95.7812 25.882 95.7692 25.774C 95.7212 25.834 95.6192 25.888 95.4632 25.936C 95.3072 25.972 95.1872 25.984 95.1032 25.972C 95.0672 26.032 94.9832 26.092 94.8512 26.152C 94.7192 26.212 94.5812 26.23 94.4372 26.206C 94.3172 26.434 94.1912 26.62 94.0592 26.764C 93.9272 26.908 93.7592 27.016 93.5552 27.088C 93.5312 27.256 93.4532 27.442 93.3212 27.646C 93.2012 27.85 93.0752 28.006 92.9432 28.114L 93.0152 28.132C 93.1832 28.012 93.4112 27.952 93.6992 27.952C 93.8672 27.952 94.0232 27.97 94.1672 28.006C 94.3232 28.042 94.4312 28.084 94.4912 28.132C 94.7792 27.952 95.0972 27.862 95.4452 27.862C 95.7332 27.862 95.9852 27.952 96.2012 28.132ZM 115.281 27.88C 115.329 28.012 115.353 28.162 115.353 28.33C 115.353 28.522 115.323 28.714 115.263 28.906C 115.215 29.086 115.149 29.224 115.065 29.32C 115.173 29.428 115.227 29.668 115.227 30.04C 115.227 30.4 115.173 30.652 115.065 30.796C 115.125 30.856 115.173 30.964 115.209 31.12C 115.245 31.276 115.263 31.45 115.263 31.642C 115.263 32.002 115.197 32.284 115.065 32.488C 115.137 32.716 115.173 32.92 115.173 33.1C 115.173 33.376 115.101 33.586 114.957 33.73C 114.813 33.874 114.645 33.946 114.453 33.946C 114.285 33.946 114.135 33.886 114.003 33.766C 113.871 33.646 113.805 33.484 113.805 33.28C 113.805 33.172 113.823 33.064 113.859 32.956C 113.703 32.68 113.625 32.368 113.625 32.02C 113.625 31.672 113.703 31.42 113.859 31.264C 113.739 31.144 113.679 30.976 113.679 30.76C 113.679 30.556 113.739 30.394 113.859 30.274C 113.739 30.034 113.679 29.764 113.679 29.464C 113.679 29.164 113.739 28.96 113.859 28.852C 113.739 28.612 113.679 28.294 113.679 27.898C 113.679 27.502 113.739 27.25 113.859 27.142C 113.691 26.914 113.607 26.644 113.607 26.332C 113.607 26.056 113.691 25.84 113.859 25.684C 113.811 25.624 113.787 25.54 113.787 25.432C 113.787 25.348 113.799 25.24 113.823 25.108C 113.847 24.964 113.859 24.832 113.859 24.712C 113.859 25.024 113.787 25.432 113.643 25.936C 113.499 26.428 113.301 26.764 113.049 26.944C 113.049 27.736 112.899 28.198 112.599 28.33C 112.599 28.594 112.551 28.906 112.455 29.266C 112.359 29.614 112.263 29.788 112.167 29.788C 112.167 29.932 112.107 30.094 111.987 30.274C 111.879 30.442 111.771 30.526 111.663 30.526C 111.699 30.646 111.717 30.778 111.717 30.922C 111.717 31.09 111.687 31.252 111.627 31.408C 111.579 31.552 111.513 31.666 111.429 31.75C 111.429 31.966 111.387 32.146 111.303 32.29C 111.219 32.434 111.105 32.572 110.961 32.704C 110.961 32.932 110.883 33.112 110.727 33.244C 110.571 33.376 110.391 33.442 110.187 33.442C 109.995 33.442 109.827 33.382 109.683 33.262C 109.539 33.13 109.467 32.95 109.467 32.722C 109.467 32.614 109.473 32.536 109.485 32.488C 109.365 32.488 109.251 32.386 109.143 32.182C 109.047 31.966 108.999 31.738 108.999 31.498C 108.891 31.498 108.777 31.408 108.657 31.228C 108.537 31.036 108.441 30.826 108.369 30.598C 108.297 30.358 108.279 30.178 108.315 30.058C 108.219 29.986 108.123 29.848 108.027 29.644C 107.943 29.44 107.901 29.224 107.901 28.996C 107.901 28.756 107.949 28.546 108.045 28.366C 107.889 28.354 107.751 28.246 107.631 28.042C 107.523 27.826 107.469 27.616 107.469 27.412C 107.469 27.292 107.499 27.202 107.559 27.142C 107.439 27.046 107.325 26.89 107.217 26.674C 107.121 26.458 107.073 26.284 107.073 26.152C 106.917 25.996 106.839 25.678 106.839 25.198C 106.671 25.198 106.527 25.048 106.407 24.748C 106.431 24.976 106.407 25.204 106.335 25.432C 106.275 25.648 106.191 25.81 106.083 25.918C 106.191 26.014 106.275 26.2 106.335 26.476C 106.395 26.74 106.425 27.01 106.425 27.286C 106.425 27.538 106.401 27.718 106.353 27.826C 106.473 28.018 106.533 28.312 106.533 28.708C 106.533 29.152 106.473 29.512 106.353 29.788C 106.449 29.992 106.497 30.196 106.497 30.4C 106.497 30.58 106.449 30.784 106.353 31.012C 106.401 31.06 106.443 31.18 106.479 31.372C 106.515 31.552 106.533 31.75 106.533 31.966C 106.533 32.374 106.473 32.62 106.353 32.704C 106.365 32.776 106.371 32.872 106.371 32.992C 106.371 33.304 106.293 33.544 106.137 33.712C 105.993 33.88 105.813 33.964 105.597 33.964C 105.381 33.964 105.189 33.88 105.021 33.712C 104.853 33.544 104.769 33.322 104.769 33.046C 104.769 32.842 104.823 32.614 104.931 32.362C 104.787 31.87 104.715 31.408 104.715 30.976C 104.715 30.58 104.769 30.274 104.877 30.058C 104.757 29.902 104.697 29.656 104.697 29.32C 104.697 29.164 104.715 29.02 104.751 28.888C 104.787 28.744 104.829 28.642 104.877 28.582C 104.757 28.306 104.697 28.03 104.697 27.754C 104.697 27.466 104.757 27.262 104.877 27.142C 104.817 27.058 104.769 26.95 104.733 26.818C 104.697 26.686 104.679 26.548 104.679 26.404C 104.679 26.188 104.715 26.026 104.787 25.918C 104.667 25.714 104.607 25.45 104.607 25.126C 104.607 24.706 104.697 24.406 104.877 24.226C 104.709 24.058 104.625 23.716 104.625 23.2C 104.625 22.96 104.649 22.732 104.697 22.516C 104.745 22.288 104.805 22.138 104.877 22.066C 104.877 21.838 104.961 21.652 105.129 21.508C 105.297 21.364 105.489 21.292 105.705 21.292C 105.957 21.292 106.173 21.382 106.353 21.562C 106.593 21.562 106.809 21.67 107.001 21.886C 107.205 22.102 107.307 22.324 107.307 22.552C 107.391 22.624 107.463 22.726 107.523 22.858C 107.583 22.978 107.613 23.104 107.613 23.236C 107.613 23.332 107.595 23.428 107.559 23.524C 107.703 23.536 107.817 23.62 107.901 23.776C 107.997 23.932 108.045 24.082 108.045 24.226C 108.141 24.31 108.219 24.43 108.279 24.586C 108.351 24.73 108.387 24.88 108.387 25.036C 108.387 25.18 108.363 25.318 108.315 25.45C 108.375 25.45 108.429 25.504 108.477 25.612C 108.537 25.708 108.567 25.816 108.567 25.936C 108.567 26.032 108.543 26.104 108.495 26.152C 108.627 26.224 108.741 26.374 108.837 26.602C 108.945 26.818 108.999 26.998 108.999 27.142C 109.083 27.226 109.149 27.364 109.197 27.556C 109.257 27.748 109.287 27.946 109.287 28.15C 109.287 28.306 109.269 28.45 109.233 28.582C 109.353 28.666 109.467 28.84 109.575 29.104C 109.683 29.356 109.737 29.602 109.737 29.842C 109.737 29.938 109.731 30.01 109.719 30.058C 109.863 30.166 109.965 30.268 110.025 30.364C 110.097 30.46 110.157 30.604 110.205 30.796C 110.229 30.268 110.343 29.95 110.547 29.842C 110.523 29.746 110.511 29.674 110.511 29.626C 110.511 29.446 110.553 29.272 110.637 29.104C 110.733 28.936 110.841 28.852 110.961 28.852C 110.901 28.732 110.871 28.63 110.871 28.546C 110.871 28.282 111.057 27.946 111.429 27.538C 111.393 27.466 111.375 27.37 111.375 27.25C 111.375 27.046 111.417 26.836 111.501 26.62C 111.597 26.404 111.729 26.248 111.897 26.152C 111.897 25.792 111.921 25.492 111.969 25.252C 112.029 25 112.167 24.82 112.383 24.712C 112.383 24.496 112.431 24.322 112.527 24.19C 112.635 24.046 112.761 23.974 112.905 23.974C 112.845 23.878 112.815 23.752 112.815 23.596C 112.815 23.344 112.869 23.086 112.977 22.822C 113.097 22.558 113.235 22.378 113.391 22.282C 113.391 22.018 113.463 21.79 113.607 21.598C 113.763 21.406 114.003 21.31 114.327 21.31C 114.387 21.286 114.471 21.274 114.579 21.274C 114.819 21.274 114.993 21.382 115.101 21.598C 115.221 21.802 115.281 21.988 115.281 22.156C 115.389 22.528 115.443 22.81 115.443 23.002C 115.443 23.182 115.389 23.464 115.281 23.848C 115.389 23.968 115.443 24.142 115.443 24.37C 115.443 24.586 115.389 24.82 115.281 25.072C 115.389 25.192 115.443 25.39 115.443 25.666C 115.443 25.954 115.383 26.17 115.263 26.314C 115.419 26.518 115.497 26.776 115.497 27.088C 115.497 27.4 115.425 27.664 115.281 27.88ZM 124.582 26.962C 124.714 27.022 124.834 27.166 124.942 27.394C 125.062 27.622 125.122 27.856 125.122 28.096C 125.122 28.504 124.942 28.78 124.582 28.924C 124.486 29.092 124.354 29.224 124.186 29.32C 124.03 29.416 123.856 29.464 123.664 29.464C 123.508 29.464 123.346 29.428 123.178 29.356C 123.082 29.416 122.95 29.47 122.782 29.518C 122.614 29.566 122.446 29.59 122.278 29.59C 121.99 29.59 121.792 29.53 121.684 29.41C 121.564 29.506 121.372 29.554 121.108 29.554C 120.916 29.554 120.742 29.518 120.586 29.446C 120.418 29.53 120.226 29.572 120.01 29.572C 119.806 29.572 119.638 29.542 119.506 29.482C 119.386 29.59 119.14 29.644 118.768 29.644C 118.564 29.644 118.426 29.626 118.354 29.59C 118.39 29.938 118.342 30.196 118.21 30.364C 118.438 30.592 118.528 30.838 118.48 31.102C 118.492 31.114 118.558 31.162 118.678 31.246C 118.798 31.33 118.882 31.468 118.93 31.66C 119.062 31.66 119.182 31.714 119.29 31.822C 119.41 31.93 119.482 32.038 119.506 32.146C 119.554 32.098 119.65 32.074 119.794 32.074C 119.902 32.074 119.998 32.092 120.082 32.128C 120.166 32.164 120.214 32.206 120.226 32.254C 120.31 32.206 120.406 32.182 120.514 32.182C 120.67 32.182 120.814 32.236 120.946 32.344C 121.066 32.32 121.156 32.308 121.216 32.308C 121.336 32.308 121.438 32.326 121.522 32.362C 121.558 32.266 121.654 32.176 121.81 32.092C 121.966 31.996 122.128 31.954 122.296 31.966C 122.392 31.846 122.524 31.75 122.692 31.678C 122.86 31.606 123.028 31.57 123.196 31.57C 123.52 31.57 123.754 31.702 123.898 31.966C 123.946 32.062 123.97 32.176 123.97 32.308C 123.97 32.596 123.838 32.824 123.574 32.992C 123.514 33.028 123.412 33.094 123.268 33.19C 123.124 33.274 122.992 33.34 122.872 33.388C 122.752 33.436 122.644 33.46 122.548 33.46C 122.368 33.676 122.122 33.784 121.81 33.784C 121.666 33.784 121.558 33.772 121.486 33.748C 121.342 33.868 121.132 33.928 120.856 33.928C 120.604 33.928 120.43 33.88 120.334 33.784C 120.25 33.82 120.166 33.838 120.082 33.838C 119.914 33.838 119.758 33.778 119.614 33.658C 119.002 33.694 118.588 33.502 118.372 33.082C 118.204 33.082 118.012 32.98 117.796 32.776C 117.592 32.56 117.478 32.374 117.454 32.218C 117.178 32.11 117.004 31.912 116.932 31.624C 116.92 31.528 116.92 31.438 116.932 31.354C 116.884 31.342 116.842 31.294 116.806 31.21C 116.782 31.114 116.77 31.018 116.77 30.922C 116.77 30.85 116.776 30.802 116.788 30.778C 116.692 30.49 116.644 30.226 116.644 29.986C 116.644 29.746 116.692 29.53 116.788 29.338C 116.716 29.206 116.68 29.062 116.68 28.906C 116.68 28.714 116.722 28.522 116.806 28.33C 116.89 28.138 116.968 28.012 117.04 27.952C 117.016 27.892 117.034 27.79 117.094 27.646C 117.154 27.49 117.232 27.352 117.328 27.232C 117.436 27.1 117.544 27.022 117.652 26.998L 117.634 26.8C 117.634 26.332 117.886 26.038 118.39 25.918C 118.39 25.714 118.51 25.516 118.75 25.324C 118.99 25.132 119.2 25.048 119.38 25.072C 119.404 24.94 119.518 24.838 119.722 24.766C 119.938 24.682 120.1 24.658 120.208 24.694C 120.304 24.538 120.496 24.43 120.784 24.37C 120.892 24.25 121.048 24.19 121.252 24.19C 121.312 24.19 121.39 24.202 121.486 24.226L 121.648 24.208C 121.792 24.208 121.912 24.238 122.008 24.298C 122.116 24.346 122.164 24.406 122.152 24.478C 122.416 24.502 122.638 24.562 122.818 24.658C 122.998 24.754 123.106 24.928 123.142 25.18C 123.298 25.144 123.496 25.186 123.736 25.306C 123.976 25.414 124.18 25.588 124.348 25.828C 124.528 26.056 124.618 26.326 124.618 26.638C 124.618 26.71 124.606 26.818 124.582 26.962ZM 121.936 28.132C 122.056 27.964 122.35 27.88 122.818 27.88C 123.082 27.88 123.286 27.904 123.43 27.952C 123.334 27.904 123.244 27.802 123.16 27.646C 123.088 27.478 123.052 27.322 123.052 27.178C 123.052 27.082 123.07 27.01 123.106 26.962C 122.938 26.974 122.794 26.932 122.674 26.836C 122.566 26.728 122.464 26.608 122.368 26.476C 122.284 26.344 122.218 26.248 122.17 26.188C 122.11 26.224 121.984 26.194 121.792 26.098C 121.612 25.99 121.516 25.882 121.504 25.774C 121.456 25.834 121.354 25.888 121.198 25.936C 121.042 25.972 120.922 25.984 120.838 25.972C 120.802 26.032 120.718 26.092 120.586 26.152C 120.454 26.212 120.316 26.23 120.172 26.206C 120.052 26.434 119.926 26.62 119.794 26.764C 119.662 26.908 119.494 27.016 119.29 27.088C 119.266 27.256 119.188 27.442 119.056 27.646C 118.936 27.85 118.81 28.006 118.678 28.114L 118.75 28.132C 118.918 28.012 119.146 27.952 119.434 27.952C 119.602 27.952 119.758 27.97 119.902 28.006C 120.058 28.042 120.166 28.084 120.226 28.132C 120.514 27.952 120.832 27.862 121.18 27.862C 121.468 27.862 121.72 27.952 121.936 28.132Z"/>
<path id="path1_stroke" d="M 92.7071 0.707107C 93.0976 0.316582 93.0976 -0.316582 92.7071 -0.707107L 86.3431 -7.07107C 85.9526 -7.46159 85.3195 -7.46159 84.9289 -7.07107C 84.5384 -6.68054 84.5384 -6.04738 84.9289 -5.65685L 90.5858 0L 84.9289 5.65685C 84.5384 6.04738 84.5384 6.68054 84.9289 7.07107C 85.3195 7.46159 85.9526 7.46159 86.3431 7.07107L 92.7071 0.707107ZM 0 1L 92 1L 92 -1L 0 -1L 0 1Z"/>
</defs>
</svg>
